<svg xmlns="http://www.w3.org/2000/svg" viewBox="0 0 600 380" role="img" aria-labelledby="title desc">
<title id="title">Expressive Performance Lab — a phrase, traced</title>
<desc id="desc">An illustrative green velocity arc, blue onset-pace curve and red articulation curve beside a fading Performance Worm. Synthetic shapes, not captured MIDI.</desc>
<defs><radialGradient id="glow"><stop stop-color="#253c2c"/><stop offset="1" stop-color="#141b16"/></radialGradient><linearGradient id="trail" x1="0" y1="1" x2="1" y2="0"><stop stop-color="#70bfff" stop-opacity=".08"/><stop offset=".65" stop-color="#70bfff" stop-opacity=".8"/><stop offset="1" stop-color="#c2ebaa"/></linearGradient></defs>
<path fill="#141b16" d="M0 0h600v380H0z"/><ellipse cx="436" cy="212" rx="162" ry="170" fill="url(#glow)"/>
<g fill="#a4aba5" font-family="Courier New,monospace" font-size="11" letter-spacing="1"><text x="32" y="80">MIDI / PHRASING / DYNAMICS</text></g>
<text x="30" y="122" fill="#f1f0e9" font-family="Arial,Helvetica,sans-serif" font-size="34" letter-spacing="-1.2">A phrase, <tspan fill="#c2ebaa" font-family="Georgia,serif" font-style="italic">traced.</tspan></text>
<path d="M327 149v169M365 166v136h191" fill="none" stroke="#354039"/>
<g font-family="Courier New,monospace" font-size="10" fill="#a4aba5"><text x="368" y="160">VELOCITY ↑</text><text x="482" y="320">PACE →</text></g>
<text x="32" y="159" font-family="Courier New,monospace" font-size="9" letter-spacing="1" fill="#c2ebaa">VELOCITY</text>
<path d="M32 198H302" fill="none" stroke="#354039"/>
<path d="M32.0,186.8 L40.1,186.7 L48.2,186.3 L56.3,185.6 L64.4,184.6 L72.5,183.4 L80.6,182.1 L88.7,180.6 L96.8,179.0 L104.9,177.5 L113.0,175.9 L121.1,174.5 L129.2,173.2 L137.3,172.1 L145.4,171.2 L153.5,170.6 L161.6,170.2 L169.7,170.2 L177.8,170.4 L185.9,170.9 L194.0,171.7 L202.1,172.8 L210.2,174.0 L218.3,175.4 L226.4,176.9 L234.5,178.5 L242.6,180.1 L250.7,181.6 L258.8,183.0 L266.9,184.2 L275.0,185.3 L283.1,186.1 L291.2,186.6 L299.3,186.8 L302.0,186.8" fill="none" stroke="#c2ebaa" stroke-width="2.4"/>
<circle cx="129.2" cy="173.2" r="3.4" fill="#c2ebaa"/>
<text x="32" y="213" font-family="Courier New,monospace" font-size="9" letter-spacing="1" fill="#70bfff">ONSET PACE</text>
<path d="M32 252H302" fill="none" stroke="#354039"/>
<path d="M32.0,230.5 L40.1,228.6 L48.2,226.9 L56.3,225.4 L64.4,224.3 L72.5,223.6 L80.6,223.4 L88.7,223.6 L96.8,224.1 L104.9,224.9 L113.0,225.8 L121.1,226.7 L129.2,227.7 L137.3,228.5 L145.4,229.2 L153.5,229.8 L161.6,230.2 L169.7,230.6 L177.8,231.1 L185.9,231.6 L194.0,232.3 L202.1,233.0 L210.2,233.9 L218.3,234.9 L226.4,235.8 L234.5,236.7 L242.6,237.3 L250.7,237.6 L258.8,237.5 L266.9,237.0 L275.0,236.0 L283.1,234.7 L291.2,233.0 L299.3,231.1 L302.0,230.5" fill="none" stroke="#70bfff" stroke-width="2.4"/>
<circle cx="129.2" cy="227.7" r="3.4" fill="#70bfff"/>
<text x="32" y="267" font-family="Courier New,monospace" font-size="9" letter-spacing="1" fill="#ff5768">ARTICULATION</text>
<path d="M32 306H302" fill="none" stroke="#354039"/>
<path d="M32.0,285.8 L40.1,284.6 L48.2,283.3 L56.3,282.3 L64.4,281.4 L72.5,280.9 L80.6,280.6 L88.7,280.6 L96.8,280.8 L104.9,281.2 L113.0,281.6 L121.1,281.9 L129.2,282.1 L137.3,282.1 L145.4,282.0 L153.5,281.8 L161.6,281.5 L169.7,281.3 L177.8,281.1 L185.9,281.2 L194.0,281.5 L202.1,282.0 L210.2,282.8 L218.3,283.9 L226.4,285.1 L234.5,286.3 L242.6,287.4 L250.7,288.2 L258.8,288.8 L266.9,289.0 L275.0,288.8 L283.1,288.3 L291.2,287.4 L299.3,286.2 L302.0,285.8" fill="none" stroke="#ff5768" stroke-width="2.4"/>
<circle cx="129.2" cy="282.1" r="3.4" fill="#ff5768"/>
<path d="M457.5,266.9 L462.7,266.7 L467.7,266.1 L472.4,265.2 L476.6,263.9 L480.2,262.3 L483.0,260.4 L485.1,258.2 L486.3,255.7 L486.8,253.1 L486.5,250.2 L485.5,247.3 L483.9,244.3 L481.9,241.3 L479.5,238.3 L476.9,235.3 L474.2,232.5 L471.6,229.9 L469.1,227.4 L466.8,225.2 L464.7,223.3 L462.9,221.7 L461.3,220.4 L459.9,219.4 L458.7,218.9 L457.5,218.7 L456.3,218.9 L455.1,219.4 L453.7,220.4 L452.1,221.7 L450.3,223.3 L448.2,225.2 L445.9,227.4 L443.4,229.9 L440.8,232.5 L438.1,235.3 L435.5,238.3 L433.1,241.3 L431.1,244.3 L429.5,247.3 L428.5,250.2 L428.2,253.1 L428.7,255.7 L429.9,258.2 L432.0,260.4 L434.8,262.3 L438.4,263.9 L442.6,265.2 L447.3,266.1 L452.3,266.7 L457.5,266.9" fill="none" stroke="#70bfff" stroke-opacity=".2" stroke-width="1.1"/>
<circle cx="469.1" cy="227.4" r="12" fill="#c2ebaa" opacity=".08"/><path d="M429.5,247.3 L428.5,250.1 L428.2,252.9 L428.6,255.4 L429.7,257.8 L431.6,260.0 L434.2,261.9 L437.5,263.6 L441.4,264.9 L445.8,265.9 L450.6,266.6 L455.6,266.9 L460.6,266.8 L465.6,266.4 L470.3,265.7 L474.6,264.6 L478.4,263.2 L481.5,261.5 L484.0,259.5 L485.6,257.3 L486.6,254.8 L486.8,252.2 L486.3,249.5 L485.2,246.6 L483.5,243.7 L481.5,240.8 L479.2,237.9 L476.6,235.0 L474.1,232.3 L471.5,229.8 L469.1,227.4" fill="none" stroke="url(#trail)" stroke-width="3.5" stroke-linecap="round"/>
<circle cx="469.1" cy="227.4" r="5" fill="#c2ebaa"/>
<text x="32" y="350" fill="#a4aba5" font-family="Courier New,monospace" font-size="9" letter-spacing="1">ILLUSTRATIVE / NOT CAPTURED MIDI</text></svg>
